<svg width="148" height="56" viewBox="0 0 148 56" fill="none" xmlns="http://www.w3.org/2000/svg">
<path d="M10.9577 0.000341302C10.2293 0.0119265 9.53523 0.317084 9.02774 0.84884C8.52026 1.3806 8.24084 2.09551 8.25081 2.83667V8.43281C7.52151 8.43281 6.82208 8.7276 6.30639 9.25234C5.79069 9.77708 5.50098 10.4888 5.50098 11.2309V14.0289H16.5003V11.2309C16.5003 10.4888 16.2106 9.77708 15.6949 9.25234C15.1792 8.7276 14.4798 8.43281 13.7505 8.43281V2.83667C13.7555 2.46231 13.6867 2.09074 13.5481 1.74395C13.4094 1.39715 13.2038 1.08219 12.9434 0.817714C12.683 0.553237 12.373 0.344622 12.032 0.204223C11.6909 0.0638235 11.3256 -0.00550558 10.9577 0.000341302ZM19.2233 16.827L2.75114 16.8707C2.33323 16.8705 1.92077 16.9673 1.5451 17.1536C1.16943 17.3399 0.840431 17.6109 0.583105 17.9459C0.325779 18.281 0.146894 18.6713 0.0600408 19.0873C-0.0268125 19.5033 -0.0193491 19.9339 0.0818642 20.3465L2.75114 28.0193H19.2502L21.8926 20.3027C21.9938 19.8902 22.0013 19.4595 21.9144 19.0436C21.8276 18.6276 21.6487 18.2373 21.3913 17.9022C21.134 17.5671 20.805 17.2962 20.4294 17.1098C20.0537 16.9235 19.6412 16.8268 19.2233 16.827ZM19.2233 30.8174L2.75114 30.8611C2.33323 30.8609 1.92077 30.9576 1.5451 31.1439C1.16943 31.3302 0.840431 31.6012 0.583106 31.9363C0.32578 32.2713 0.146895 32.6617 0.0600414 33.0776C-0.0268121 33.4936 -0.0193488 33.9242 0.0818642 34.3368L2.75114 42.0097H19.2502L21.8926 34.2931C21.9938 33.8805 22.0013 33.4499 21.9144 33.0339C21.8276 32.618 21.6487 32.2276 21.3913 31.8926C21.134 31.5575 20.805 31.2865 20.4294 31.1002C20.0537 30.9139 19.6412 30.8172 19.2233 30.8174ZM2.75114 44.8077L0.00130258 56H22L19.2502 44.8077H2.75114Z" fill="#293241"/>
<path d="M46.3889 24.4373L40.1735 7.29384C39.9045 6.59301 39.5547 6.40433 38.7744 6.40433H35.7071C34.9268 6.40433 34.577 6.56606 34.308 7.34775L28.1196 24.4373C27.8505 25.1651 28.0119 25.5424 28.846 25.5424H31.6712C33.0165 25.5424 33.3663 25.2459 33.6353 24.4103L34.2542 22.4696H40.0659L40.6847 24.4103C40.9 25.2459 41.3036 25.5424 42.7027 25.5424H45.6086C46.4158 25.5424 46.6579 25.1651 46.3889 24.4373ZM37.8596 15.0839L38.8551 18.2376H35.4919L36.4874 15.0569C37.0255 13.2509 36.9986 11.3102 36.9986 11.3102H37.2677C37.2677 11.3102 37.3215 13.2509 37.8596 15.0839Z" fill="#293241"/>
<path d="M66.2046 6.37737H63.514C62.6261 6.37737 62.3839 6.51215 62.0073 7.23993L57.5677 15.9464L53.1282 7.21298C52.7515 6.5391 52.4825 6.37737 51.5408 6.37737H49.0116C48.1506 6.37737 47.8546 6.64692 47.8546 7.50948V24.4373C47.8546 25.2729 48.1506 25.5424 49.0116 25.5424H51.756C52.617 25.5424 52.913 25.2729 52.913 24.4373V20.6096C52.913 18.7497 52.7784 17.402 51.8098 13.5205H52.0789C52.3479 14.4639 53.182 16.9438 53.7471 17.9681L55.3345 21.014C55.6305 21.607 55.8996 21.7957 56.626 21.7957H58.4287C59.1552 21.7957 59.4243 21.5531 59.7202 21.014L61.227 17.9681C61.792 16.8629 62.7606 14.41 63.0297 13.5205H63.3257C62.3032 17.1055 62.1418 18.8037 62.1418 20.5827V24.4373C62.1418 25.2729 62.4108 25.5424 63.2718 25.5424H66.2046C67.0656 25.5424 67.3616 25.2729 67.3616 24.4373V7.50948C67.3616 6.64692 67.0656 6.37737 66.2046 6.37737Z" fill="#293241"/>
<path d="M87.116 24.4373L80.9006 7.29384C80.6316 6.59301 80.2818 6.40433 79.5015 6.40433H76.4342C75.6539 6.40433 75.3042 6.56606 75.0351 7.34775L68.8467 24.4373C68.5776 25.1651 68.7391 25.5424 69.5731 25.5424H72.3983C73.7436 25.5424 74.0934 25.2459 74.3624 24.4103L74.9813 22.4696H80.793L81.4119 24.4103C81.6271 25.2459 82.0307 25.5424 83.4298 25.5424H86.3357C87.1429 25.5424 87.385 25.1651 87.116 24.4373ZM78.5867 15.0839L79.5822 18.2376H76.219L77.2145 15.0569C77.7526 13.2509 77.7257 11.3102 77.7257 11.3102H77.9948C77.9948 11.3102 78.0486 13.2509 78.5867 15.0839Z" fill="#293241"/>
<path d="M101.685 6.40433H89.2006C88.3665 6.40433 88.0705 6.70083 88.0705 7.53644V9.9624C88.0705 10.825 88.3665 11.1215 89.2006 11.1215H95.7657L88.3127 21.6339C88.0705 21.9574 87.936 22.3078 87.936 22.7661V24.4103C87.936 25.2459 88.2319 25.5424 89.066 25.5424H101.82C102.681 25.5424 102.95 25.2459 102.95 24.4103V21.9574C102.95 21.0948 102.681 20.8253 101.82 20.8253H95.0123L102.465 10.3398C102.707 9.98935 102.815 9.66589 102.815 9.15374V7.53644C102.815 6.70083 102.546 6.40433 101.685 6.40433Z" fill="#293241"/>
<path d="M105.03 7.48253V24.4642C105.03 25.2729 105.299 25.5424 106.106 25.5424H109.281C110.089 25.5424 110.358 25.2729 110.358 24.4642V7.48253C110.358 6.67388 110.089 6.40433 109.281 6.40433H106.106C105.299 6.40433 105.03 6.67388 105.03 7.48253Z" fill="#293241"/>
<path d="M128.084 6.40433H125.34C124.479 6.40433 124.21 6.70083 124.21 7.53644V11.9571C124.21 14.7065 124.559 16.0003 125.42 18.7767H125.205C124.344 16.7281 124.129 15.7038 122.945 13.8439L118.532 6.94343C118.29 6.56606 118.021 6.40433 117.402 6.40433H114.228C113.367 6.40433 113.071 6.70083 113.071 7.53644V24.4103C113.071 25.2459 113.367 25.5424 114.228 25.5424H116.945C117.806 25.5424 118.102 25.2459 118.102 24.4103V20.0166C118.102 17.0246 117.779 15.6499 117.214 13.0622H117.429C118.156 15.4882 118.613 16.7551 119.797 18.615L123.941 25.0033C124.183 25.3807 124.479 25.5424 125.044 25.5424H128.084C128.918 25.5424 129.214 25.2459 129.214 24.4103V7.53644C129.214 6.70083 128.918 6.40433 128.084 6.40433Z" fill="#293241"/>
<path d="M146.87 14.5448H140.063C139.229 14.5448 138.933 14.8413 138.933 15.7038V17.7255C138.933 18.588 139.229 18.8576 140.063 18.8576H142.646V19.3967C142.646 20.5557 141.543 21.2296 139.74 21.2296C137.614 21.2296 136.78 20.3131 136.78 18.4263V13.5205C136.78 11.6336 137.614 10.7171 139.74 10.7171C141.247 10.7171 142.054 11.2562 142.538 12.4692C142.834 13.3048 143.157 13.4666 143.991 13.197L146.87 12.1727C147.677 11.9032 147.865 11.4988 147.596 10.7171C146.466 7.69817 143.883 6 139.74 6C134.439 6 131.453 8.88419 131.453 13.5474V18.3993C131.453 23.0626 134.439 25.9468 139.74 25.9468C145.04 25.9468 148 23.0626 148 19.2619V15.7038C148 14.8413 147.731 14.5448 146.87 14.5448Z" fill="#293241"/>
<path d="M42.7565 31.8619H29.438C28.577 31.8619 28.3079 32.1584 28.3079 32.994V35.42C28.3079 36.2825 28.577 36.579 29.438 36.579H33.447V49.8679C33.447 50.7035 33.716 51 34.577 51H37.6174C38.4784 51 38.7744 50.7035 38.7744 49.8679V36.579H42.7565C43.6175 36.579 43.9135 36.2825 43.9135 35.42V32.994C43.9135 32.1584 43.6175 31.8619 42.7565 31.8619Z" fill="#293241"/>
<path d="M60.42 49.8948L54.2047 32.7514C53.9356 32.0506 53.5858 31.8619 52.8056 31.8619H49.7383C48.958 31.8619 48.6082 32.0236 48.3391 32.8053L42.1507 49.8948C41.8816 50.6226 42.0431 51 42.8772 51H45.7023C47.0476 51 47.3974 50.7035 47.6665 49.8679L48.2853 47.9271H54.0971L54.7159 49.8679C54.9311 50.7035 55.3347 51 56.7339 51H59.6397C60.4469 51 60.6891 50.6226 60.42 49.8948ZM51.8907 40.5414L52.8863 43.6952H49.523L50.5185 40.5145C51.0567 38.7085 51.0297 36.7677 51.0297 36.7677H51.2988C51.2988 36.7677 51.3526 38.7085 51.8907 40.5414Z" fill="#293241"/>
<path d="M61.8858 32.9401V49.9218C61.8858 50.7304 62.1548 51 62.962 51H66.1369C66.9441 51 67.2132 50.7304 67.2132 49.9218V32.9401C67.2132 32.1314 66.9441 31.8619 66.1369 31.8619H62.962C62.1548 31.8619 61.8858 32.1314 61.8858 32.9401Z" fill="#293241"/>
<path d="M92.7694 31.8619H89.7828C88.8142 31.8619 88.4106 32.0236 88.2492 32.8592L87.1191 39.9215C86.9039 41.404 86.7424 43.9378 86.7155 44.6925H86.5003C86.4734 43.8839 86.3119 41.4579 85.9891 39.9215L84.3478 32.8592C84.1594 32.0236 83.6751 31.8619 82.841 31.8619H79.9352C79.0742 31.8619 78.6168 31.9967 78.4284 32.8592L76.7602 39.9215C76.4374 41.377 76.249 43.8839 76.249 44.6925H76.0607C76.0607 43.9378 75.9262 41.3231 75.684 39.9215L74.5001 32.8592C74.3387 32.0236 73.9351 31.8619 72.9934 31.8619H69.6839C68.8498 31.8619 68.7691 32.2123 68.9575 32.9671L73.2086 50.1105C73.3701 50.8383 73.8275 51 74.6077 51H77.702C78.4553 51 78.8858 50.8383 79.1011 50.0566L80.5271 43.83C80.9038 42.0779 81.0652 40.5145 81.119 38.978H81.3343C81.3612 40.5145 81.4957 42.1318 81.8455 43.83L83.2984 50.1105C83.4599 50.8113 83.9173 51 84.6976 51H87.8456C88.599 51 89.0295 50.8383 89.2178 50.0566L93.4959 32.9671C93.6842 32.2123 93.6035 31.8619 92.7694 31.8619Z" fill="#293241"/>
<path d="M110.659 49.8948L104.444 32.7514C104.174 32.0506 103.825 31.8619 103.044 31.8619H99.9771C99.1968 31.8619 98.847 32.0236 98.578 32.8053L92.3896 49.8948C92.1205 50.6226 92.2819 51 93.116 51H95.9412C97.2865 51 97.6363 50.7035 97.9053 49.8679L98.5242 47.9271H104.336L104.955 49.8679C105.17 50.7035 105.574 51 106.973 51H109.879C110.686 51 110.928 50.6226 110.659 49.8948ZM102.13 40.5414L103.125 43.6952H99.7619L100.757 40.5145C101.296 38.7085 101.269 36.7677 101.269 36.7677H101.538C101.538 36.7677 101.591 38.7085 102.13 40.5414Z" fill="#293241"/>
<path d="M127.138 31.8619H124.394C123.533 31.8619 123.264 32.1584 123.264 32.994V37.4146C123.264 40.1641 123.614 41.4579 124.475 44.2343H124.259C123.398 42.1857 123.183 41.1614 121.999 39.3015L117.587 32.401C117.344 32.0236 117.075 31.8619 116.457 31.8619H113.282C112.421 31.8619 112.125 32.1584 112.125 32.994V49.8679C112.125 50.7035 112.421 51 113.282 51H115.999C116.86 51 117.156 50.7035 117.156 49.8679V45.4742C117.156 42.4822 116.833 41.1075 116.268 38.5198H116.483C117.21 40.9458 117.667 42.2126 118.851 44.0725L122.995 50.4609C123.237 50.8383 123.533 51 124.098 51H127.138C127.972 51 128.268 50.7035 128.268 49.8679V32.994C128.268 32.1584 127.972 31.8619 127.138 31.8619Z" fill="#293241"/>
</svg>
