<svg width="193" height="73" viewBox="0 0 193 73" fill="none" xmlns="http://www.w3.org/2000/svg">
<path d="M14.2841 0.000444911C13.3347 0.015547 12.4299 0.413342 11.7683 1.10652C11.1068 1.79971 10.7425 2.73164 10.7555 3.6978V10.9928C9.80483 10.9928 8.89307 11.3771 8.22082 12.0611C7.54858 12.7451 7.17092 13.6729 7.17092 14.6403V18.2877H21.5094V14.6403C21.5094 13.6729 21.1317 12.7451 20.4594 12.0611C19.7872 11.3771 18.8754 10.9928 17.9247 10.9928V3.6978C17.9313 3.2098 17.8416 2.72543 17.6609 2.27336C17.4801 1.82129 17.2121 1.41071 16.8726 1.06595C16.5332 0.721184 16.1291 0.44924 15.6845 0.266219C15.2399 0.0831984 14.7637 -0.00717691 14.2841 0.000444911V0.000444911ZM25.059 21.9352L3.58631 21.9922C3.04153 21.9919 2.50386 22.118 2.01414 22.3609C1.52443 22.6038 1.09556 22.957 0.760119 23.3938C0.424677 23.8306 0.191487 24.3394 0.0782675 24.8817C-0.0349521 25.4239 -0.0252229 25.9852 0.106716 26.5231L3.58631 36.5252H25.094L28.5385 26.4661C28.6705 25.9282 28.6802 25.3669 28.567 24.8247C28.4538 24.2824 28.2206 23.7736 27.8851 23.3368C27.5497 22.9 27.1208 22.5468 26.6311 22.3039C26.1414 22.061 25.6037 21.935 25.059 21.9352ZM25.059 40.1726L3.58631 40.2296C3.04153 40.2294 2.50386 40.3555 2.01414 40.5983C1.52443 40.8412 1.09556 41.1944 0.76012 41.6312C0.424678 42.068 0.191488 42.5768 0.0782682 43.1191C-0.0349515 43.6613 -0.0252226 44.2227 0.106716 44.7605L3.58631 54.7626H25.094L28.5385 44.7035C28.6705 44.1657 28.6802 43.6043 28.567 43.0621C28.4538 42.5198 28.2206 42.011 27.8851 41.5742C27.5497 41.1374 27.1208 40.7842 26.6311 40.5413C26.1414 40.2985 25.6037 40.1724 25.059 40.1726V40.1726ZM3.58631 58.4101L0.00169801 73H28.6786L25.094 58.4101H3.58631Z" fill="white"/>
<path d="M60.4712 31.8558L52.3691 9.50815C52.0183 8.59457 51.5624 8.3486 50.5452 8.3486H46.5468C45.5296 8.3486 45.0736 8.55943 44.7229 9.57843L36.6559 31.8558C36.3051 32.8046 36.5156 33.2965 37.6029 33.2965H41.2856C43.0393 33.2965 43.4953 32.91 43.8461 31.8207L44.6528 29.2908H52.2288L53.0355 31.8207C53.3161 32.91 53.8422 33.2965 55.666 33.2965H59.454C60.5063 33.2965 60.8219 32.8046 60.4712 31.8558ZM49.3527 19.663L50.6504 23.7741H46.2662L47.5639 19.6279C48.2654 17.2736 48.2303 14.7437 48.2303 14.7437H48.5811C48.5811 14.7437 48.6512 17.2736 49.3527 19.663Z" fill="white"/>
<path d="M86.3024 8.31346H82.795C81.6376 8.31346 81.3219 8.48915 80.8309 9.43788L75.0437 20.7874L69.2564 9.40274C68.7654 8.52429 68.4146 8.31346 67.1871 8.31346H63.8901C62.7677 8.31346 62.3819 8.66484 62.3819 9.78925V31.8558C62.3819 32.9451 62.7677 33.2965 63.8901 33.2965H67.4676C68.59 33.2965 68.9758 32.9451 68.9758 31.8558V26.8663C68.9758 24.4417 68.8005 22.6848 67.5378 17.625H67.8885C68.2393 18.8548 69.3266 22.0875 70.0631 23.4227L72.1325 27.3933C72.5183 28.1664 72.8691 28.4123 73.8161 28.4123H76.166C77.113 28.4123 77.4638 28.0961 77.8496 27.3933L79.8137 23.4227C80.5503 21.9821 81.813 18.7845 82.1637 17.625H82.5495C81.2167 22.2983 81.0063 24.512 81.0063 26.8311V31.8558C81.0063 32.9451 81.357 33.2965 82.4794 33.2965H86.3024C87.4248 33.2965 87.8106 32.9451 87.8106 31.8558V9.78925C87.8106 8.66484 87.4248 8.31346 86.3024 8.31346Z" fill="white"/>
<path d="M113.562 31.8558L105.46 9.50815C105.109 8.59457 104.653 8.3486 103.636 8.3486H99.6375C98.6203 8.3486 98.1643 8.55943 97.8136 9.57843L89.7466 31.8558C89.3958 32.8046 89.6063 33.2965 90.6936 33.2965H94.3763C96.13 33.2965 96.586 32.91 96.9368 31.8207L97.7435 29.2908H105.319L106.126 31.8207C106.407 32.91 106.933 33.2965 108.757 33.2965H112.545C113.597 33.2965 113.913 32.8046 113.562 31.8558ZM102.443 19.663L103.741 23.7741H99.3569L100.655 19.6279C101.356 17.2736 101.321 14.7437 101.321 14.7437H101.672C101.672 14.7437 101.742 17.2736 102.443 19.663Z" fill="white"/>
<path d="M132.554 8.3486H116.279C115.192 8.3486 114.806 8.73512 114.806 9.82439V12.9868C114.806 14.1112 115.192 14.4977 116.279 14.4977H124.837L115.122 28.2015C114.806 28.6231 114.631 29.0799 114.631 29.6773V31.8207C114.631 32.91 115.017 33.2965 116.104 33.2965H132.729C133.851 33.2965 134.202 32.91 134.202 31.8207V28.6231C134.202 27.4987 133.851 27.1474 132.729 27.1474H123.855L133.571 13.4787C133.887 13.0219 134.027 12.6003 134.027 11.9327V9.82439C134.027 8.73512 133.676 8.3486 132.554 8.3486Z" fill="white"/>
<path d="M136.914 9.75412V31.891C136.914 32.9451 137.265 33.2965 138.317 33.2965H142.456C143.508 33.2965 143.859 32.9451 143.859 31.891V9.75412C143.859 8.69998 143.508 8.3486 142.456 8.3486H138.317C137.265 8.3486 136.914 8.69998 136.914 9.75412Z" fill="white"/>
<path d="M166.967 8.3486H163.389C162.267 8.3486 161.916 8.73512 161.916 9.82439V15.587C161.916 19.1711 162.372 20.8577 163.495 24.4769H163.214C162.092 21.8064 161.811 20.4712 160.268 18.0467L154.516 9.05136C154.2 8.55943 153.849 8.3486 153.042 8.3486H148.904C147.781 8.3486 147.396 8.73512 147.396 9.82439V31.8207C147.396 32.91 147.781 33.2965 148.904 33.2965H152.446C153.569 33.2965 153.954 32.91 153.954 31.8207V26.0932C153.954 22.1929 153.533 20.4009 152.797 17.0277H153.078C154.025 20.1901 154.621 21.8415 156.164 24.2661L161.565 32.5937C161.881 33.0857 162.267 33.2965 163.004 33.2965H166.967C168.054 33.2965 168.44 32.91 168.44 31.8207V9.82439C168.44 8.73512 168.054 8.3486 166.967 8.3486Z" fill="white"/>
<path d="M191.455 18.9602H182.582C181.494 18.9602 181.109 19.3468 181.109 20.4712V23.1065C181.109 24.2309 181.494 24.5823 182.582 24.5823H185.949V25.2851C185.949 26.796 184.511 27.6744 182.161 27.6744C179.39 27.6744 178.303 26.4797 178.303 24.0201V17.625C178.303 15.1653 179.39 13.9707 182.161 13.9707C184.125 13.9707 185.177 14.6734 185.809 16.2546C186.194 17.3439 186.615 17.5547 187.703 17.2033L191.455 15.8681C192.508 15.5167 192.753 14.9897 192.402 13.9707C190.929 10.0352 187.562 7.82153 182.161 7.82153C175.251 7.82153 171.358 11.5813 171.358 17.6601V23.9849C171.358 30.0638 175.251 33.8236 182.161 33.8236C189.07 33.8236 192.929 30.0638 192.929 25.1094V20.4712C192.929 19.3468 192.578 18.9602 191.455 18.9602Z" fill="white"/>
<path d="M55.7362 41.5344H38.3745C37.2521 41.5344 36.9014 41.9209 36.9014 43.0102V46.1726C36.9014 47.297 37.2521 47.6835 38.3745 47.6835H43.6005V65.0065C43.6005 66.0957 43.9513 66.4822 45.0736 66.4822H49.037C50.1594 66.4822 50.5452 66.0957 50.5452 65.0065V47.6835H55.7362C56.8585 47.6835 57.2444 47.297 57.2444 46.1726V43.0102C57.2444 41.9209 56.8585 41.5344 55.7362 41.5344Z" fill="white"/>
<path d="M78.7618 65.0416L70.6597 42.6939C70.3089 41.7803 69.853 41.5344 68.8358 41.5344H64.8374C63.8202 41.5344 63.3642 41.7452 63.0135 42.7642L54.9465 65.0416C54.5957 65.9903 54.8062 66.4822 55.8935 66.4822H59.5762C61.33 66.4822 61.7859 66.0957 62.1367 65.0065L62.9434 62.4765H70.5194L71.3261 65.0065C71.6067 66.0957 72.1328 66.4822 73.9566 66.4822H77.7446C78.7969 66.4822 79.1125 65.9903 78.7618 65.0416ZM67.6433 52.8488L68.941 56.9599H64.5568L65.8545 52.8136C66.556 50.4594 66.5209 47.9295 66.5209 47.9295H66.8717C66.8717 47.9295 66.9418 50.4594 67.6433 52.8488Z" fill="white"/>
<path d="M80.6725 42.9399V65.0767C80.6725 66.1309 81.0232 66.4822 82.0755 66.4822H86.2142C87.2664 66.4822 87.6172 66.1309 87.6172 65.0767V42.9399C87.6172 41.8857 87.2664 41.5344 86.2142 41.5344H82.0755C81.0232 41.5344 80.6725 41.8857 80.6725 42.9399Z" fill="white"/>
<path d="M120.932 41.5344H117.038C115.776 41.5344 115.25 41.7452 115.039 42.8345L113.566 52.0406C113.285 53.9732 113.075 57.2761 113.04 58.26H112.759C112.724 57.2059 112.514 54.0434 112.093 52.0406L109.953 42.8345C109.708 41.7452 109.077 41.5344 107.989 41.5344H104.201C103.079 41.5344 102.483 41.7101 102.237 42.8345L100.062 52.0406C99.6416 53.938 99.396 57.2059 99.396 58.26H99.1505C99.1505 57.2761 98.9752 53.8678 98.6595 52.0406L97.1162 42.8345C96.9058 41.7452 96.3797 41.5344 95.1521 41.5344H90.838C89.7507 41.5344 89.6454 41.9912 89.891 42.975L95.4327 65.3227C95.6431 66.2714 96.2394 66.4822 97.2565 66.4822H101.29C102.272 66.4822 102.833 66.2714 103.114 65.2524L104.973 57.1356C105.464 54.8516 105.674 52.8136 105.744 50.8108H106.025C106.06 52.8136 106.235 54.9219 106.691 57.1356L108.585 65.3227C108.796 66.2363 109.392 66.4822 110.409 66.4822H114.513C115.495 66.4822 116.056 66.2714 116.302 65.2524L121.879 42.975C122.124 41.9912 122.019 41.5344 120.932 41.5344Z" fill="white"/>
<path d="M144.252 65.0416L136.15 42.6939C135.799 41.7803 135.343 41.5344 134.326 41.5344H130.327C129.31 41.5344 128.854 41.7452 128.503 42.7642L120.436 65.0416C120.086 65.9903 120.296 66.4822 121.383 66.4822H125.066C126.82 66.4822 127.276 66.0957 127.627 65.0065L128.433 62.4765H136.009L136.816 65.0065C137.097 66.0957 137.623 66.4822 139.447 66.4822H143.235C144.287 66.4822 144.602 65.9903 144.252 65.0416ZM133.133 52.8488L134.431 56.9599H130.047L131.344 52.8136C132.046 50.4594 132.011 47.9295 132.011 47.9295H132.362C132.362 47.9295 132.432 50.4594 133.133 52.8488Z" fill="white"/>
<path d="M165.734 41.5344H162.156C161.034 41.5344 160.683 41.9209 160.683 43.0102V48.7728C160.683 52.3568 161.139 54.0434 162.261 57.6626H161.981C160.858 54.9922 160.578 53.6569 159.035 51.2324L153.282 42.2371C152.967 41.7452 152.616 41.5344 151.809 41.5344H147.671C146.548 41.5344 146.162 41.9209 146.162 43.0102V65.0065C146.162 66.0957 146.548 66.4822 147.671 66.4822H151.213C152.335 66.4822 152.721 66.0957 152.721 65.0065V59.279C152.721 55.3787 152.3 53.5867 151.564 50.2134H151.844C152.791 53.3758 153.388 55.0273 154.931 57.4518L160.332 65.7795C160.648 66.2714 161.034 66.4822 161.77 66.4822H165.734C166.821 66.4822 167.207 66.0957 167.207 65.0065V43.0102C167.207 41.9209 166.821 41.5344 165.734 41.5344Z" fill="white"/>
</svg>
