<svg width="full" height="131" viewBox="0 0 1440 131" fill="none" xmlns="http://www.w3.org/2000/svg">
<path d="M-51 104.847L0.400002 91.7707C51.8 78.6942 154.6 52.5413 257.4 30.72C360.2 9.22557 463 -8.75455 565.8 4.56709C668.6 17.3984 771.4 61.5314 874.2 74.3626C977 87.6843 1079.8 69.7041 1182.6 74.3626C1285.4 78.6942 1388.2 104.847 1439.6 117.924L1491 131L1439.6 131C1388.2 131 1285.4 131 1182.6 131C1079.8 131 977 131 874.2 131C771.4 131 668.6 131 565.8 131C463 131 360.2 131 257.4 131C154.6 131 51.8 131 0.400002 131H-51V104.847Z" fill="#293241"/>
</svg>
