<svg width="593" height="575" viewBox="0 0 593 575" fill="none" xmlns="http://www.w3.org/2000/svg">
<g clip-path="url(#clip0_4_1818)">
<path d="M92.7527 66.3378C92.7824 59.1861 91.1614 52.1243 88.0161 45.7029C84.8709 39.2816 80.2863 33.6744 74.62 29.3186C68.9538 24.9628 62.3589 21.9762 55.3499 20.5917C48.3408 19.2071 41.107 19.4621 34.2126 21.3367C27.3182 23.2113 20.9495 26.6549 15.6034 31.3989C10.2572 36.1428 6.07794 42.059 3.39162 48.6859C0.705306 55.3127 -0.415491 62.4713 0.116644 69.6031C0.648779 76.735 2.81946 83.6474 6.4594 89.8012L6.59899 89.9664C8.37562 92.9771 10.5964 95.0478 12.8553 98.2745L39.7838 133.971C40.5631 135.008 41.5724 135.849 42.7319 136.428C43.8914 137.007 45.1694 137.308 46.4652 137.308C47.761 137.308 49.0391 137.007 50.1986 136.428C51.3581 135.849 52.3673 135.008 53.1466 133.971L79.5422 98.8588C81.9458 96.0208 84.1911 93.0521 86.268 89.9664L86.3695 89.8393C90.5621 82.7194 92.7667 74.6026 92.7527 66.3378ZM46.3701 86.5618C42.3317 86.5618 38.3839 85.363 35.0261 83.1171C31.6683 80.8711 29.0512 77.6788 27.5058 73.9439C25.9604 70.209 25.556 66.0992 26.3439 62.1342C27.1317 58.1692 29.0764 54.5272 31.932 51.6686C34.7876 48.81 38.4258 46.8633 42.3866 46.0746C46.3474 45.2859 50.4529 45.6907 54.1839 47.2378C57.9149 48.7848 61.1038 51.4047 63.3474 54.766C65.591 58.1273 66.7886 62.0792 66.7886 66.1218C66.7902 68.8065 66.2632 71.4652 65.2377 73.9459C64.2122 76.4265 62.7082 78.6805 60.8119 80.5788C58.9155 82.4772 56.6639 83.9827 54.1859 85.0093C51.7078 86.0359 49.0519 86.5635 46.3701 86.5618Z" fill="#F5F5F5"/>
<path d="M592.987 347.924C592.991 344.778 592.271 341.672 590.881 338.85C589.491 336.027 587.47 333.563 584.974 331.65C582.478 329.737 579.575 328.425 576.491 327.818C573.407 327.21 570.224 327.323 567.19 328.147C564.156 328.971 561.353 330.484 558.998 332.569C556.644 334.654 554.801 337.254 553.614 340.168C552.427 343.082 551.927 346.23 552.152 349.369C552.378 352.508 553.324 355.552 554.917 358.265V358.341C555.704 359.612 556.693 360.615 557.683 362L569.549 377.74C569.893 378.197 570.338 378.569 570.85 378.824C571.362 379.08 571.927 379.213 572.499 379.213C573.071 379.213 573.636 379.08 574.148 378.824C574.66 378.569 575.105 378.197 575.45 377.74L587.112 362.267C588.175 361.011 589.166 359.696 590.081 358.329V358.265C591.962 355.143 592.966 351.57 592.987 347.924ZM572.544 356.817C570.764 356.817 569.024 356.289 567.545 355.299C566.065 354.309 564.912 352.903 564.231 351.257C563.55 349.611 563.372 347.8 563.719 346.053C564.066 344.306 564.923 342.701 566.181 341.441C567.44 340.182 569.043 339.324 570.788 338.976C572.534 338.629 574.343 338.807 575.987 339.489C577.631 340.171 579.036 341.325 580.025 342.806C581.013 344.287 581.541 346.029 581.541 347.81C581.543 348.994 581.311 350.168 580.86 351.263C580.409 352.358 579.746 353.353 578.911 354.191C578.075 355.03 577.083 355.696 575.991 356.151C574.898 356.606 573.727 356.841 572.544 356.842V356.817Z" fill="#F5F5F5"/>
<path d="M564.79 573.717C564.79 573.895 443.687 574.047 294.324 574.047C144.96 574.047 23.8323 573.895 23.8323 573.717C23.8323 573.539 144.909 573.387 294.324 573.387C443.738 573.387 564.79 573.526 564.79 573.717Z" fill="#263238"/>
<path d="M542.442 62.7047H46.4463V94.5143H542.442V62.7047Z" fill="#E0E0E0"/>
<path d="M542.379 123.732H46.3828V402.194H542.379V123.732Z" fill="white"/>
<path d="M46.4463 94.2856H114.555L121.306 74.6078H231.698L238.449 94.2856H542.455V124.406H46.4463V94.2856Z" fill="#EBEBEB"/>
<path d="M62.8166 75.3955C62.8166 76.1342 62.5978 76.8563 62.1878 77.4705C61.7778 78.0847 61.1952 78.5634 60.5134 78.846C59.8317 79.1287 59.0815 79.2027 58.3578 79.0586C57.6341 78.9145 56.9693 78.5588 56.4475 78.0364C55.9257 77.5141 55.5704 76.8486 55.4264 76.1241C55.2825 75.3996 55.3564 74.6487 55.6387 73.9662C55.9211 73.2838 56.3993 72.7005 57.0129 72.2901C57.6264 71.8797 58.3477 71.6607 59.0857 71.6607C59.5761 71.659 60.062 71.7544 60.5154 71.9415C60.9688 72.1286 61.3808 72.4037 61.7276 72.7508C62.0743 73.098 62.3491 73.5104 62.536 73.9643C62.7229 74.4181 62.8183 74.9046 62.8166 75.3955Z" fill="#263238"/>
<path d="M74.352 75.3955C74.352 76.1342 74.1332 76.8563 73.7232 77.4705C73.3132 78.0847 72.7305 78.5634 72.0488 78.846C71.3671 79.1287 70.6169 79.2027 69.8932 79.0586C69.1695 78.9145 68.5047 78.5588 67.9829 78.0364C67.4611 77.5141 67.1058 76.8486 66.9618 76.1241C66.8179 75.3996 66.8918 74.6487 67.1741 73.9662C67.4565 73.2838 67.9347 72.7005 68.5483 72.2901C69.1618 71.8797 69.8832 71.6607 70.6211 71.6607C71.1115 71.659 71.5974 71.7544 72.0508 71.9415C72.5042 72.1286 72.9162 72.4037 73.2629 72.7508C73.6097 73.098 73.8845 73.5104 74.0714 73.9643C74.2583 74.4181 74.3536 74.9046 74.352 75.3955Z" fill="#263238"/>
<path d="M85.8874 75.3955C85.8874 76.1342 85.6685 76.8563 85.2586 77.4705C84.8486 78.0847 84.2659 78.5634 83.5842 78.846C82.9025 79.1287 82.1523 79.2027 81.4286 79.0586C80.7049 78.9145 80.0401 78.5588 79.5183 78.0364C78.9965 77.5141 78.6412 76.8486 78.4972 76.1241C78.3533 75.3996 78.4272 74.6487 78.7095 73.9662C78.9919 73.2838 79.4701 72.7005 80.0837 72.2901C80.6972 71.8797 81.4185 71.6607 82.1565 71.6607C82.6469 71.659 83.1328 71.7544 83.5862 71.9415C84.0396 72.1286 84.4516 72.4037 84.7983 72.7508C85.1451 73.098 85.4199 73.5104 85.6068 73.9643C85.7937 74.4181 85.889 74.9046 85.8874 75.3955Z" fill="#263238"/>
<path d="M487.621 118.41H147.333C144.829 118.41 142.428 117.414 140.657 115.641C138.886 113.869 137.892 111.465 137.892 108.958C137.892 106.452 138.886 104.048 140.657 102.275C142.428 100.503 144.829 99.5068 147.333 99.5068H487.621C490.125 99.5068 492.526 100.503 494.297 102.275C496.068 104.048 497.062 106.452 497.062 108.958C497.062 111.465 496.068 113.869 494.297 115.641C492.526 117.414 490.125 118.41 487.621 118.41Z" fill="#FAFAFA"/>
<path d="M155.48 110.216V113.417H153.869V110.47C153.869 109.568 153.45 109.2 152.739 109.2C152.029 109.2 151.394 109.682 151.394 110.699V113.468H149.782V105.719H151.394V108.412C151.879 107.97 152.516 107.734 153.171 107.751C153.493 107.73 153.816 107.78 154.116 107.899C154.417 108.017 154.687 108.201 154.908 108.437C155.129 108.672 155.295 108.954 155.394 109.262C155.493 109.57 155.522 109.895 155.48 110.216Z" fill="#E0E0E0"/>
<path d="M160.531 113.138C160.153 113.38 159.711 113.504 159.262 113.493C158.986 113.531 158.706 113.506 158.441 113.42C158.177 113.333 157.936 113.188 157.735 112.995C157.535 112.802 157.381 112.566 157.285 112.304C157.189 112.043 157.153 111.763 157.181 111.486V109.2H156.318V107.929H157.181V106.57H158.792V107.929H160.176V109.2H158.792V111.486C158.779 111.583 158.787 111.681 158.817 111.774C158.846 111.867 158.896 111.953 158.964 112.023C159.031 112.094 159.113 112.149 159.204 112.184C159.295 112.218 159.393 112.232 159.49 112.223C159.724 112.226 159.952 112.15 160.138 112.007L160.531 113.138Z" fill="#E0E0E0"/>
<path d="M164.871 113.138C164.491 113.377 164.051 113.501 163.602 113.493C163.326 113.531 163.046 113.506 162.781 113.42C162.517 113.333 162.275 113.188 162.075 112.995C161.875 112.802 161.721 112.566 161.625 112.304C161.529 112.043 161.493 111.763 161.521 111.486V109.2H160.658V107.929H161.521V106.57H163.132V107.929H164.528V109.2H163.132V111.486C163.121 111.582 163.131 111.68 163.162 111.772C163.192 111.864 163.242 111.948 163.309 112.018C163.376 112.089 163.457 112.143 163.547 112.179C163.637 112.214 163.734 112.229 163.83 112.223C164.068 112.226 164.3 112.15 164.49 112.007L164.871 113.138Z" fill="#E0E0E0"/>
<path d="M171.901 110.622C171.924 110.998 171.869 111.374 171.739 111.727C171.609 112.08 171.406 112.402 171.145 112.672C170.883 112.942 170.568 113.155 170.22 113.296C169.872 113.437 169.498 113.505 169.122 113.493C168.811 113.508 168.5 113.456 168.211 113.339C167.922 113.223 167.662 113.046 167.447 112.82V115.361H165.835V107.739H167.409V108.387C167.628 108.143 167.9 107.951 168.203 107.826C168.506 107.7 168.833 107.645 169.16 107.662C169.541 107.655 169.919 107.729 170.269 107.878C170.619 108.027 170.934 108.249 171.193 108.528C171.451 108.808 171.648 109.139 171.77 109.5C171.893 109.86 171.937 110.243 171.901 110.622ZM170.264 110.622C170.24 110.348 170.136 110.086 169.966 109.869C169.795 109.653 169.566 109.49 169.305 109.402C169.044 109.313 168.763 109.303 168.496 109.371C168.229 109.44 167.988 109.584 167.802 109.787C167.615 109.99 167.492 110.243 167.447 110.515C167.401 110.787 167.436 111.067 167.546 111.319C167.657 111.572 167.838 111.787 168.068 111.938C168.298 112.09 168.568 112.171 168.843 112.172C169.041 112.175 169.238 112.136 169.42 112.057C169.603 111.978 169.766 111.862 169.9 111.716C170.035 111.57 170.136 111.396 170.199 111.208C170.262 111.02 170.284 110.82 170.264 110.622Z" fill="#E0E0E0"/>
<path d="M172.587 108.755C172.615 108.507 172.733 108.277 172.919 108.111C173.105 107.944 173.346 107.852 173.596 107.852C173.845 107.852 174.086 107.944 174.272 108.111C174.458 108.277 174.577 108.507 174.604 108.755C174.62 108.897 174.606 109.041 174.563 109.177C174.519 109.314 174.448 109.439 174.352 109.546C174.257 109.652 174.141 109.738 174.01 109.796C173.88 109.854 173.738 109.885 173.596 109.885C173.453 109.885 173.311 109.854 173.181 109.796C173.051 109.738 172.934 109.652 172.839 109.546C172.743 109.439 172.672 109.314 172.628 109.177C172.585 109.041 172.571 108.897 172.587 108.755ZM172.587 112.477C172.615 112.229 172.733 111.999 172.919 111.833C173.105 111.666 173.346 111.574 173.596 111.574C173.845 111.574 174.086 111.666 174.272 111.833C174.458 111.999 174.577 112.229 174.604 112.477C174.62 112.619 174.606 112.763 174.563 112.899C174.519 113.036 174.448 113.161 174.352 113.268C174.257 113.374 174.141 113.46 174.01 113.518C173.88 113.577 173.738 113.607 173.596 113.607C173.453 113.607 173.311 113.577 173.181 113.518C173.051 113.46 172.934 113.374 172.839 113.268C172.743 113.161 172.672 113.036 172.628 112.899C172.585 112.763 172.571 112.619 172.587 112.477Z" fill="#E0E0E0"/>
<path d="M178.577 104.677H180.023L176.597 114.446H175.163L178.577 104.677Z" fill="#E0E0E0"/>
<path d="M181.889 104.677H183.323L179.909 114.446H178.462L181.889 104.677Z" fill="#E0E0E0"/>
<path d="M487.316 173.81H190.835C186.396 173.81 182.138 172.044 178.999 168.902C175.86 165.76 174.097 161.498 174.097 157.054C174.1 152.611 175.865 148.351 179.003 145.209C182.141 142.068 186.397 140.301 190.835 140.298H487.316C491.754 140.301 496.01 142.068 499.148 145.209C502.287 148.351 504.051 152.611 504.055 157.054C504.055 161.498 502.291 165.76 499.152 168.902C496.013 172.044 491.755 173.81 487.316 173.81Z" fill="#FAFAFA"/>
<path d="M487.316 173.81C489.681 173.759 492.012 173.232 494.169 172.26C496.291 171.282 498.188 169.874 499.739 168.124C501.289 166.375 502.461 164.323 503.179 162.097C503.78 160.111 504.013 158.031 503.864 155.961C503.707 153.644 503.067 151.385 501.986 149.33C500.777 147.079 499.071 145.132 496.999 143.639C494.734 142.005 492.093 140.974 489.321 140.641C487.849 140.515 486.37 140.472 484.892 140.514H480.273H437.647L190.861 140.603C187.897 140.611 184.991 141.419 182.447 142.94C179.947 144.434 177.89 146.567 176.486 149.119C175.081 151.672 174.38 154.553 174.455 157.466C174.53 160.379 175.378 163.22 176.912 165.697C178.446 168.174 180.61 170.198 183.183 171.561C185.724 172.88 188.557 173.535 191.419 173.467H274.134L385.084 173.543L459.956 173.645H480.26H485.552C486.745 173.645 487.354 173.645 487.354 173.645H485.552H480.26H459.956L385.084 173.759L274.134 173.822H208.601H191.419C188.45 173.899 185.511 173.217 182.878 171.841C179.509 170.057 176.832 167.195 175.276 163.712C173.72 160.228 173.373 156.323 174.292 152.62C175.21 148.916 177.34 145.627 180.343 143.276C183.346 140.926 187.049 139.649 190.861 139.65L437.71 140.069H480.337H484.956C486.45 140.033 487.946 140.079 489.435 140.209C492.256 140.56 494.941 141.622 497.24 143.296C499.255 144.742 500.925 146.618 502.127 148.788C503.33 150.959 504.036 153.37 504.194 155.847C504.328 157.949 504.078 160.059 503.458 162.072C502.882 163.829 502.025 165.481 500.92 166.963C499.199 169.298 496.904 171.149 494.258 172.336C492.645 173.046 490.933 173.504 489.182 173.695C487.925 173.81 487.316 173.81 487.316 173.81Z" fill="#263238"/>
<path d="M197.637 160.623L198.259 159.226C199.044 159.765 199.972 160.057 200.924 160.065C202.028 160.065 202.472 159.696 202.472 159.201C202.472 157.689 197.789 158.731 197.789 155.733C197.789 154.361 198.894 153.192 201.19 153.192C202.168 153.173 203.133 153.419 203.982 153.903L203.411 155.326C202.735 154.923 201.965 154.704 201.178 154.691C200.074 154.691 199.642 155.11 199.642 155.618C199.642 157.105 204.325 156.076 204.325 159.036C204.325 160.382 203.208 161.576 200.911 161.576C199.748 161.603 198.605 161.27 197.637 160.623Z" fill="#E0E0E0"/>
<path d="M211.508 158.832H206.825C206.918 159.223 207.149 159.567 207.476 159.8C207.802 160.034 208.202 160.141 208.601 160.103C208.887 160.112 209.172 160.062 209.438 159.957C209.704 159.852 209.946 159.694 210.15 159.493L211.101 160.535C210.617 161.001 210.013 161.322 209.356 161.463C208.7 161.603 208.017 161.557 207.385 161.33C206.753 161.103 206.197 160.703 205.78 160.177C205.362 159.65 205.1 159.017 205.023 158.35C205.017 157.919 205.099 157.493 205.265 157.096C205.43 156.699 205.675 156.34 205.984 156.041C206.293 155.742 206.66 155.51 207.062 155.359C207.464 155.207 207.893 155.14 208.322 155.161C208.75 155.139 209.178 155.207 209.578 155.361C209.978 155.515 210.342 155.75 210.645 156.053C210.949 156.356 211.186 156.719 211.341 157.119C211.496 157.519 211.566 157.947 211.546 158.375C211.546 158.489 211.52 158.68 211.508 158.832ZM206.799 157.778H209.845C209.78 157.421 209.592 157.099 209.313 156.867C209.035 156.635 208.684 156.508 208.322 156.508C207.96 156.508 207.609 156.635 207.331 156.867C207.053 157.099 206.865 157.421 206.799 157.778Z" fill="#E0E0E0"/>
<path d="M218.043 157.88V161.424H216.368V160.649C216.159 160.949 215.873 161.188 215.54 161.339C215.208 161.491 214.841 161.551 214.477 161.513C213.03 161.513 212.167 160.7 212.167 159.633C212.167 158.566 212.942 157.778 214.82 157.778H216.254C216.254 157.016 215.784 156.508 214.82 156.508C214.182 156.502 213.559 156.702 213.043 157.079L212.396 155.809C213.191 155.301 214.118 155.04 215.061 155.059C216.901 155.136 218.043 156.012 218.043 157.88ZM216.254 159.467V158.832H214.985C214.147 158.832 213.881 159.137 213.881 159.556C213.881 159.976 214.261 160.306 214.883 160.306C215.172 160.334 215.462 160.268 215.709 160.117C215.956 159.965 216.147 159.737 216.254 159.467Z" fill="#E0E0E0"/>
<path d="M223.512 155.136V156.787H223.106C222.881 156.768 222.655 156.8 222.443 156.88C222.232 156.96 222.041 157.086 221.884 157.249C221.727 157.412 221.609 157.608 221.537 157.822C221.465 158.037 221.442 158.265 221.469 158.489V161.424H219.667V155.224H221.38V156.038C221.639 155.729 221.967 155.486 222.338 155.329C222.708 155.172 223.111 155.106 223.512 155.136Z" fill="#E0E0E0"/>
<path d="M224.071 158.324C224.071 157.883 224.163 157.446 224.34 157.041C224.517 156.637 224.776 156.274 225.1 155.974C225.424 155.675 225.807 155.446 226.224 155.301C226.641 155.157 227.083 155.101 227.523 155.136C228.088 155.09 228.655 155.216 229.148 155.497C229.641 155.778 230.039 156.201 230.289 156.711L228.893 157.46C228.765 157.203 228.568 156.987 228.323 156.837C228.079 156.686 227.797 156.608 227.51 156.609C227.055 156.609 226.62 156.79 226.298 157.112C225.977 157.433 225.797 157.869 225.797 158.324C225.797 158.779 225.977 159.215 226.298 159.537C226.62 159.858 227.055 160.039 227.51 160.039C227.797 160.044 228.08 159.966 228.325 159.816C228.57 159.665 228.767 159.447 228.893 159.188L230.289 159.95C230.034 160.456 229.635 160.874 229.143 161.152C228.65 161.43 228.086 161.556 227.523 161.513C227.083 161.548 226.641 161.491 226.224 161.347C225.807 161.203 225.424 160.974 225.1 160.674C224.776 160.375 224.517 160.011 224.34 159.607C224.163 159.203 224.071 158.766 224.071 158.324Z" fill="#E0E0E0"/>
<path d="M237.611 157.88V161.424H235.809V158.146C235.809 157.143 235.352 156.685 234.54 156.685C233.728 156.685 233.055 157.219 233.055 158.362V161.424H231.253V152.874H233.055V155.872C233.318 155.625 233.627 155.432 233.965 155.306C234.303 155.179 234.662 155.122 235.022 155.136C235.383 155.108 235.745 155.161 236.082 155.291C236.419 155.422 236.723 155.626 236.971 155.889C237.22 156.152 237.406 156.467 237.517 156.812C237.627 157.156 237.66 157.521 237.611 157.88Z" fill="#E0E0E0"/>
<path d="M242.053 160.382C242.053 160.086 242.171 159.801 242.38 159.592C242.589 159.382 242.873 159.264 243.17 159.264C243.466 159.264 243.75 159.382 243.959 159.592C244.169 159.801 244.286 160.086 244.286 160.382C244.286 160.679 244.169 160.963 243.959 161.173C243.75 161.382 243.466 161.5 243.17 161.5C242.873 161.5 242.589 161.382 242.38 161.173C242.171 160.963 242.053 160.679 242.053 160.382Z" fill="#E0E0E0"/>
<path d="M245.073 160.382C245.076 160.162 245.143 159.947 245.267 159.765C245.392 159.582 245.567 159.441 245.771 159.358C245.975 159.276 246.2 159.255 246.415 159.3C246.631 159.345 246.829 159.452 246.984 159.609C247.139 159.766 247.244 159.965 247.286 160.181C247.328 160.398 247.305 160.622 247.22 160.826C247.135 161.029 246.992 161.203 246.809 161.325C246.626 161.447 246.41 161.513 246.19 161.513C246.042 161.514 245.895 161.486 245.757 161.43C245.62 161.374 245.496 161.29 245.392 161.185C245.288 161.079 245.206 160.954 245.151 160.816C245.096 160.678 245.07 160.53 245.073 160.382Z" fill="#E0E0E0"/>
<path d="M248.081 160.382C248.081 160.086 248.198 159.801 248.408 159.592C248.617 159.382 248.901 159.264 249.197 159.264C249.494 159.264 249.778 159.382 249.987 159.592C250.197 159.801 250.314 160.086 250.314 160.382C250.314 160.529 250.285 160.674 250.229 160.81C250.173 160.946 250.091 161.069 249.987 161.173C249.883 161.276 249.76 161.359 249.625 161.415C249.489 161.471 249.344 161.5 249.197 161.5C249.051 161.5 248.906 161.471 248.77 161.415C248.635 161.359 248.511 161.276 248.408 161.173C248.304 161.069 248.222 160.946 248.166 160.81C248.11 160.674 248.081 160.529 248.081 160.382Z" fill="#E0E0E0"/>
<path d="M139.58 202.952C139.58 203.142 127.676 203.282 113.006 203.282C98.3365 203.282 86.4331 203.142 86.4331 202.952C86.4331 202.761 98.3238 202.621 113.006 202.621C127.689 202.621 139.58 202.799 139.58 202.952Z" fill="black"/>
<path d="M141.661 218.183H86.4331V273.469H141.661V218.183Z" fill="#FF725E"/>
<path d="M477.24 231.217C477.24 231.395 408.713 231.547 324.146 231.547C239.578 231.547 171.038 231.395 171.038 231.217C171.038 231.039 239.565 230.887 324.146 230.887C408.726 230.887 477.24 231.026 477.24 231.217Z" fill="black"/>
<path d="M254.794 252.025C254.794 252.216 236.723 252.356 214.452 252.356C192.18 252.356 174.097 252.216 174.097 252.025C174.097 251.835 192.155 251.695 214.452 251.695C236.748 251.695 254.794 251.848 254.794 252.025Z" fill="black"/>
<path d="M428.307 271.335C428.307 271.513 371.391 271.665 301.202 271.665C231.012 271.665 174.097 271.513 174.097 271.335C174.097 271.157 231 270.992 301.202 270.992C371.404 270.992 428.307 271.144 428.307 271.335Z" fill="#E0E0E0"/>
<path d="M139.58 302.039C139.58 302.217 127.676 302.37 113.006 302.37C98.3365 302.37 86.4331 302.217 86.4331 302.039C86.4331 301.861 98.3238 301.709 113.006 301.709C127.689 301.709 139.58 301.823 139.58 302.039Z" fill="black"/>
<path d="M141.661 317.207H86.4331V372.493H141.661V317.207Z" fill="#FF725E"/>
<path d="M495.438 330.228C495.438 330.419 422.812 330.559 333.244 330.559C243.677 330.559 171.038 330.419 171.038 330.228C171.038 330.038 243.652 329.898 333.244 329.898C422.837 329.898 495.438 330.051 495.438 330.228Z" fill="black"/>
<path d="M254.794 351.049C254.794 351.227 236.723 351.38 214.452 351.38C192.18 351.38 174.097 351.227 174.097 351.049C174.097 350.872 192.155 350.719 214.452 350.719C236.748 350.719 254.794 350.872 254.794 351.049Z" fill="black"/>
<path d="M472.57 370.346C472.57 370.537 405.756 370.676 323.346 370.676C240.936 370.676 174.097 370.537 174.097 370.346C174.097 370.156 240.911 370.016 323.346 370.016C405.782 370.016 472.57 370.168 472.57 370.346Z" fill="#E0E0E0"/>
<path d="M542.442 402.867C542.442 400.682 542.341 269.734 542.176 62.7047L542.442 62.9714H46.4843L46.8142 62.6411C46.8142 184.062 46.8142 299.422 46.8142 402.804L46.5096 402.499L542.506 402.804L46.5096 403.096H46.2051V402.804C46.2051 299.422 46.2051 184.062 46.2051 62.6411V62.3109H46.5731H542.531H542.798V62.5776C542.557 269.734 542.442 400.682 542.442 402.867Z" fill="#263238"/>
<path d="M218.297 87.3495C218.297 87.5401 200.784 87.6798 179.186 87.6798C157.587 87.6798 140.074 87.5401 140.074 87.3495C140.074 87.159 157.587 87.0192 179.186 87.0192C200.784 87.0192 218.297 87.1717 218.297 87.3495Z" fill="black"/>
<path d="M147.739 149.876H78.2732V170.824H147.739V149.876Z" fill="#455A64"/>
<path d="M270.745 204.743C270.745 204.933 249.172 205.073 222.523 205.073C195.873 205.073 174.3 204.933 174.3 204.743C174.3 204.552 195.873 204.413 222.523 204.413C249.172 204.413 270.745 204.565 270.745 204.743Z" fill="#FF725E"/>
<path d="M270.745 302.039C270.745 302.217 249.172 302.37 222.523 302.37C195.873 302.37 174.3 302.217 174.3 302.039C174.3 301.861 195.873 301.709 222.523 301.709C249.172 301.709 270.745 301.823 270.745 302.039Z" fill="#FF725E"/>
<path d="M480.933 162.631C479.336 162.633 477.773 162.161 476.444 161.274C475.115 160.388 474.079 159.126 473.466 157.649C472.854 156.172 472.693 154.547 473.004 152.978C473.315 151.41 474.084 149.969 475.213 148.838C476.343 147.708 477.782 146.938 479.349 146.626C480.916 146.315 482.54 146.476 484.015 147.089C485.49 147.702 486.75 148.74 487.636 150.07C488.522 151.401 488.994 152.965 488.991 154.564C488.988 156.702 488.138 158.752 486.627 160.264C485.117 161.776 483.069 162.627 480.933 162.631ZM480.933 147.755C479.587 147.752 478.271 148.15 477.151 148.896C476.03 149.643 475.157 150.705 474.64 151.949C474.123 153.193 473.987 154.563 474.248 155.885C474.509 157.206 475.155 158.421 476.106 159.374C477.057 160.328 478.269 160.978 479.589 161.241C480.908 161.505 482.277 161.371 483.52 160.856C484.764 160.341 485.827 159.468 486.575 158.348C487.323 157.228 487.722 155.911 487.722 154.564C487.722 152.76 487.007 151.03 485.735 149.754C484.462 148.477 482.735 147.758 480.933 147.755Z" fill="#FF725E"/>
<path d="M490.844 166.213C490.673 166.213 490.508 166.144 490.387 166.022L485.133 160.801C485.074 160.742 485.027 160.672 484.995 160.594C484.963 160.517 484.947 160.434 484.947 160.35C484.947 160.267 484.963 160.184 484.995 160.106C485.027 160.029 485.074 159.959 485.133 159.899C485.193 159.84 485.263 159.793 485.34 159.761C485.417 159.729 485.5 159.713 485.584 159.713C485.668 159.713 485.75 159.729 485.828 159.761C485.905 159.793 485.975 159.84 486.034 159.899L491.288 165.121C491.374 165.211 491.431 165.324 491.454 165.446C491.477 165.568 491.464 165.695 491.417 165.81C491.371 165.925 491.292 166.024 491.19 166.096C491.088 166.167 490.968 166.208 490.844 166.213Z" fill="#FF725E"/>
<path d="M357.61 250.603C357.61 250.78 336.836 250.933 311.202 250.933C285.567 250.933 264.781 250.78 264.781 250.603C264.781 250.425 285.567 250.272 311.202 250.272C336.836 250.272 357.61 250.412 357.61 250.603Z" fill="black"/>
<path d="M417.596 249.167C417.596 249.358 406.721 249.497 393.32 249.497C379.919 249.497 369.031 249.358 369.031 249.167C369.031 248.977 379.906 248.837 393.32 248.837C406.733 248.837 417.596 248.989 417.596 249.167Z" fill="black"/>
<path d="M357.166 351.049C357.166 351.227 336.392 351.38 310.757 351.38C285.123 351.38 264.349 351.227 264.349 351.049C264.349 350.872 285.123 350.719 310.757 350.719C336.392 350.719 357.166 350.872 357.166 351.049Z" fill="black"/>
<path d="M108.044 377.193C97.74 382.529 89.8467 391.726 84.1742 401.851C78.5016 411.976 74.8342 423.066 71.2175 434.156L68.0449 491.03C80.0245 470.628 89.6183 446.644 92.2324 423.117L84.263 422.405C89.6056 421.592 94.0979 417.718 96.9532 413.119C99.8085 408.52 101.268 403.223 102.702 398.002L92.9812 399.45C100.674 394.246 106.069 386.275 108.044 377.193Z" fill="#455A64"/>
<g opacity="0.3">
<path opacity="0.3" d="M108.044 377.193C97.74 382.529 89.8467 391.726 84.1742 401.851C78.5016 411.976 74.8342 423.066 71.2175 434.156L68.0449 491.03C80.0245 470.628 89.6183 446.644 92.2324 423.117L84.263 422.405C89.6056 421.592 94.0979 417.718 96.9532 413.119C99.8085 408.52 101.268 403.223 102.702 398.002L92.9812 399.45C100.674 394.246 106.069 386.275 108.044 377.193Z" fill="black"/>
</g>
<path d="M66.2682 504.279C66.2682 504.279 40.266 473.13 40.5706 443.391H51.0654C51.0654 443.391 39.6442 435.871 40.5579 431.666C41.4716 427.461 41.8269 411.544 41.8269 411.544L51.4334 413.945C51.4334 413.945 44.2254 410.337 43.3244 404.633C42.4234 398.929 45.4309 372.48 45.4309 372.48C45.4309 372.48 57.1313 384.803 60.7353 397.417C64.3393 410.032 73.7301 424.755 70.9636 463.209C68.1971 501.663 66.2682 504.279 66.2682 504.279Z" fill="#455A64"/>
<path d="M79.4533 507.227C79.4533 507.227 107.626 488.438 113.882 464.467L105.43 462.104C105.43 462.104 116.255 458.572 116.445 454.99C116.636 451.407 119.872 438.539 119.872 438.539L111.623 438.374C111.623 438.374 118.209 437.103 120.176 432.657C122.143 428.211 125.519 406.361 125.519 406.361C125.519 406.361 113.412 413.691 107.752 423.053C102.093 432.416 91.2552 442.172 85.1004 473.702C78.9457 505.232 79.4533 507.227 79.4533 507.227Z" fill="#455A64"/>
<path d="M52.4741 399.653C52.5189 399.755 52.5529 399.862 52.5756 399.971L52.8041 400.924C53.0071 401.826 53.2863 403.058 53.6543 404.62C54.3777 407.834 55.3421 412.496 56.4335 418.277C58.6542 429.824 61.2811 445.881 63.3496 463.717C65.4181 481.553 66.5095 497.788 66.979 509.551C67.2201 515.433 67.347 520.184 67.3724 523.525C67.3724 525.139 67.3724 526.396 67.3724 527.336C67.3724 527.743 67.3724 528.061 67.3724 528.327C67.3914 528.437 67.3914 528.548 67.3724 528.658C67.3549 528.548 67.3549 528.437 67.3724 528.327C67.3724 528.073 67.3724 527.743 67.3724 527.349C67.3724 526.422 67.2963 525.164 67.2328 523.538C67.1313 520.248 66.9283 515.497 66.6237 509.628C66.0399 497.877 64.8598 481.68 62.8166 463.895C60.7735 446.11 58.2101 430.027 56.1035 418.454C55.0629 412.674 54.1746 407.999 53.5655 404.773C53.2609 403.197 53.0198 401.953 52.8421 401.063C52.7787 400.657 52.7152 400.339 52.6772 400.085C52.5785 399.958 52.5092 399.81 52.4741 399.653Z" fill="#263238"/>
<path d="M62.6643 523.36C62.6643 523.36 38.8702 496.403 31.4718 479.99L37.0555 477.615C33.0073 478.275 28.8703 476.535 25.7358 473.893C22.7247 471.102 20.1343 467.888 18.0456 464.352L25.3932 463.082C18.646 461.161 12.8943 456.717 9.32739 450.671C18.0075 452.093 25.8246 456.857 32.3093 462.815C37.4554 467.754 42.1288 473.164 46.2685 478.974C48.3391 481.766 50.1487 484.743 51.6746 487.866C55.6466 496.149 62.677 513.439 62.6643 523.36Z" fill="#455A64"/>
<path d="M114.25 422.138C114.23 422.236 114.196 422.33 114.148 422.418L113.793 423.206L112.359 426.216C111.09 428.757 109.301 432.568 107.118 437.281C102.752 446.644 96.9657 459.728 91.3059 474.439C85.6461 489.15 81.1538 502.704 78.032 512.549C76.4965 517.491 75.2909 521.442 74.4787 524.275L73.5016 527.489L73.2351 528.315C73.2351 528.492 73.1336 528.594 73.1209 528.581C73.1082 528.569 73.1209 528.48 73.1209 528.289L73.3239 527.451L74.1615 524.224C74.8975 521.429 76.0396 517.402 77.5244 512.448C80.4812 502.526 84.9354 488.934 90.6206 474.197C96.3059 459.461 102.156 446.402 106.636 437.078C108.869 432.416 110.735 428.668 112.067 426.102L113.615 423.142L114.034 422.392C114.096 422.3 114.168 422.214 114.25 422.138Z" fill="#263238"/>
<path d="M64.6819 534.946C64.4973 534.315 64.3699 533.669 64.3012 533.015C64.1109 531.744 63.7936 529.979 63.3495 527.768C62.1826 522.022 60.566 516.377 58.5145 510.885C56.4308 505.401 53.9144 500.091 50.9892 495.006C49.8598 493.062 48.9207 491.5 48.2354 490.445C47.8616 489.907 47.5347 489.337 47.2583 488.743C47.7016 489.223 48.1009 489.741 48.4512 490.293C49.1999 491.322 50.2151 492.834 51.3953 494.777C54.4548 499.818 57.046 505.129 59.1363 510.644C61.2106 516.167 62.7738 521.87 63.8063 527.679C64.187 529.915 64.4408 531.719 64.555 532.989C64.6517 533.637 64.6941 534.291 64.6819 534.946Z" fill="#263238"/>
<path d="M96.0776 528.594H43.9971V539.227H96.0776V528.594Z" fill="#FF725E"/>
<path d="M48.959 539.227L54.5934 575H86.0651L91.3188 539.227H48.959Z" fill="#FF725E"/>
<path d="M92.8797 539.227C92.8797 539.405 83.0321 539.557 70.8749 539.557C58.7177 539.557 48.8828 539.405 48.8828 539.227C48.8828 539.049 58.7304 538.897 70.8749 538.897C83.0194 538.897 92.8797 539.036 92.8797 539.227Z" fill="#263238"/>
<path d="M319.691 548.602V574.975L372.838 574.721C372.457 569.372 343.282 558.701 343.282 558.701L343.866 548.539L319.691 548.602Z" fill="#455A64"/>
<g opacity="0.6">
<path opacity="0.6" d="M328.308 556.313C327.791 556.503 327.359 556.874 327.093 557.357C326.827 557.84 326.745 558.404 326.861 558.943C326.983 559.473 327.308 559.934 327.766 560.227C328.224 560.519 328.779 560.619 329.31 560.505C329.859 560.299 330.315 559.902 330.595 559.386C330.875 558.87 330.959 558.271 330.833 557.698C330.74 557.435 330.595 557.193 330.407 556.987C330.22 556.78 329.993 556.613 329.741 556.495C329.488 556.376 329.214 556.31 328.936 556.298C328.657 556.287 328.379 556.331 328.118 556.427" fill="white"/>
</g>
<path d="M319.691 574.975V570.77L370.452 571.367C370.452 571.367 373.092 572.955 372.851 574.721L319.691 574.975Z" fill="#263238"/>
<path d="M343.308 559.21C343.308 559.489 342.039 559.629 340.77 560.48C339.501 561.331 338.854 562.538 338.612 562.436C338.371 562.335 338.739 560.734 340.275 559.68C341.81 558.625 343.359 558.955 343.308 559.21Z" fill="#263238"/>
<path d="M350.275 561.649C350.275 561.915 349.221 562.398 348.359 563.567C347.496 564.736 347.267 565.968 347.013 565.955C346.76 565.942 346.569 564.405 347.661 562.97C348.752 561.534 350.262 561.395 350.275 561.649Z" fill="#263238"/>
<path d="M353.409 568.369C353.168 568.432 352.787 567.098 353.409 565.561C354.031 564.024 355.249 563.44 355.364 563.668C355.478 563.897 354.742 564.71 354.234 565.955C353.726 567.2 353.663 568.343 353.409 568.369Z" fill="#263238"/>
<path d="M342.788 551.702C342.686 551.956 341.519 551.6 340.034 551.702C338.549 551.803 337.496 552.337 337.318 552.096C337.14 551.854 338.257 550.825 339.97 550.749C341.684 550.673 342.914 551.486 342.788 551.702Z" fill="#263238"/>
<path d="M343.092 560.391C343.236 559.866 343.275 559.318 343.206 558.778C343.091 557.297 342.606 555.869 341.798 554.624C341.245 553.769 340.539 553.024 339.716 552.426C339.474 552.218 339.18 552.079 338.865 552.023C338.55 551.967 338.227 551.996 337.927 552.108C337.616 552.282 337.355 552.534 337.171 552.839C336.986 553.144 336.884 553.492 336.874 553.849C336.956 555.225 337.443 556.545 338.274 557.644C339.105 558.743 340.243 559.571 341.544 560.023C342.817 560.427 344.182 560.44 345.463 560.059C346.743 559.679 347.88 558.923 348.727 557.888C349.142 557.41 349.465 556.859 349.678 556.262C349.786 555.919 349.786 555.551 349.678 555.208C349.619 555.037 349.524 554.88 349.399 554.748C349.274 554.617 349.123 554.514 348.955 554.446C348.405 554.283 347.812 554.342 347.305 554.611C346.865 554.812 346.441 555.045 346.036 555.31C344.843 556.11 343.813 557.132 343.003 558.32C342.672 558.74 342.423 559.219 342.267 559.73C343.368 558.184 344.739 556.849 346.315 555.792C347.026 555.386 347.965 554.801 348.714 555.068C349.044 555.195 349.171 555.589 349.018 556.046C348.825 556.543 348.541 557 348.181 557.393C347.413 558.306 346.392 558.971 345.247 559.304C344.102 559.636 342.884 559.621 341.747 559.26C340.61 558.858 339.612 558.141 338.868 557.191C338.124 556.242 337.666 555.1 337.546 553.899C337.537 553.67 337.59 553.443 337.7 553.242C337.809 553.041 337.971 552.873 338.168 552.756C338.37 552.691 338.585 552.678 338.794 552.718C339.002 552.758 339.197 552.85 339.361 552.985C340.129 553.518 340.795 554.185 341.328 554.954C342.128 556.091 342.661 557.393 342.889 558.765C343.054 559.819 343.029 560.391 343.092 560.391Z" fill="#263238"/>
<path d="M300.301 552.413L301.202 559.21L300.593 574.517L280.669 575L279.958 559.21L282.23 549.822L300.301 552.413Z" fill="#455A64"/>
<path d="M290.745 573.361C290.618 573.361 290.91 568.686 291.38 562.906C291.849 557.126 292.344 552.426 292.458 552.413C292.572 552.4 292.293 557.101 291.824 562.881C291.354 568.661 290.859 573.361 290.745 573.361Z" fill="#263238"/>
<path d="M300.681 571.977L280.542 572.205V575L300.694 574.987L300.681 571.977Z" fill="#263238"/>
<path d="M280.593 563.16C280.593 563.16 280.732 562.843 281.1 562.36C281.628 561.667 282.223 561.029 282.877 560.455C283.838 559.584 284.919 558.856 286.088 558.295C288.131 557.294 290.442 556.977 292.679 557.391C294.916 557.805 296.961 558.928 298.511 560.594C299.097 561.246 299.589 561.977 299.971 562.767C300.133 563.044 300.24 563.351 300.288 563.669C299.669 562.688 298.973 561.757 298.207 560.886C296.214 558.921 293.53 557.817 290.732 557.812C287.928 557.896 285.239 558.946 283.118 560.785C281.481 562.144 280.669 563.237 280.593 563.16Z" fill="#263238"/>
<path d="M290.656 125.13L290.504 194.059L320.059 195.469L320.922 178.701C320.922 178.701 331.417 180.784 334.12 171.078C335.859 164.841 335.389 116.657 335.389 116.657L290.656 125.13Z" fill="#B78876"/>
<path d="M339.247 121.497C334.59 122.83 333.574 130.389 333.574 130.389L326.278 146.535C322.559 143.626 317.559 143.791 316.62 150.346C315.935 155.072 321.811 156.025 321.811 156.025C318.384 161.856 316.075 166.569 311.087 172.107C305.732 178.142 302.687 178.739 296.849 178.815H290.402C290.402 178.815 287.243 168.563 281.405 142.94C274.933 114.51 308.511 118.168 314.742 110.915C324.882 99.113 353.955 117.292 339.247 121.497Z" fill="#263238"/>
<path d="M347.445 115.297C347.188 113.781 346.399 112.407 345.219 111.421C344.039 110.436 342.547 109.905 341.011 109.924C341.491 109.114 341.67 108.16 341.517 107.23C341.364 106.301 340.888 105.455 340.173 104.842C339.431 104.259 338.572 103.843 337.654 103.624C336.736 103.405 335.782 103.387 334.856 103.572C333.005 103.947 331.218 104.589 329.552 105.477C328.929 103.635 327.727 102.044 326.125 100.942C324.402 99.9313 322.423 99.4415 320.427 99.5322C311.354 99.5322 306.582 105.744 301.709 112.083C300.999 113.264 299.981 114.23 298.765 114.878C297.881 115.138 296.957 115.242 296.037 115.183C292.57 115.293 289.194 116.316 286.248 118.15C283.303 119.983 280.892 122.562 279.26 125.625C276.088 131.761 273.715 145.951 281.938 154.843L286.887 165.908L334.26 128.331C334.602 128.509 337.572 129.957 339.856 128.763C345.529 125.765 343.143 120.785 343.143 120.785C343.6 120.468 347.927 118.346 347.445 115.297Z" fill="#263238"/>
<path d="M303.6 152.277C303.996 154.007 303.939 155.81 303.435 157.511C303.169 159.267 302.447 160.923 301.341 162.313C301.138 162.211 302.09 160.103 302.699 157.346C303.308 154.589 303.385 152.277 303.6 152.277Z" fill="#455A64"/>
<path d="M307.179 148.885C307.427 150.581 307.332 152.309 306.9 153.967C306.711 155.657 306.18 157.291 305.339 158.769C305.463 157.1 305.739 155.446 306.164 153.827C306.345 152.151 306.685 150.497 307.179 148.885Z" fill="#455A64"/>
<path d="M317.407 137.503C317.483 137.605 316.646 138.214 315.58 139.459C314.221 141.108 313.145 142.971 312.394 144.973C311.666 146.997 311.077 149.068 310.631 151.172C310.505 152.049 310.258 152.905 309.895 153.713C309.841 152.805 309.914 151.895 310.11 151.007C310.411 148.839 310.943 146.71 311.697 144.655C312.469 142.571 313.661 140.669 315.199 139.066C315.801 138.377 316.558 137.841 317.407 137.503Z" fill="#455A64"/>
<path d="M321.544 129.767C321.633 129.767 321.938 130.427 322.128 131.621C322.342 133.195 322.252 134.795 321.861 136.334C321.49 137.876 320.812 139.328 319.869 140.603C319.146 141.581 318.6 142.051 318.486 141.987C318.372 141.924 320.301 139.612 321.138 136.156C321.976 132.701 321.316 129.792 321.544 129.767Z" fill="#455A64"/>
<path d="M286.278 146.98C286.177 147.17 285.276 146.853 284.26 146.281C283.245 145.71 282.496 145.112 282.598 144.922C282.699 144.731 283.6 145.062 284.616 145.633C285.631 146.205 286.38 146.802 286.278 146.98Z" fill="#455A64"/>
<path d="M300.555 139.625C300.67 140.694 300.37 141.768 299.717 142.623C298.803 144.134 297.572 144.922 297.445 144.769C297.319 144.617 298.245 143.626 299.07 142.229C299.895 140.831 300.339 139.574 300.555 139.625Z" fill="#455A64"/>
<path d="M304.945 137.262C304.93 138.564 304.484 139.823 303.676 140.844C302.496 142.648 301.011 143.613 300.897 143.385C300.783 143.156 301.95 142.114 303.055 140.374C303.624 139.301 304.255 138.262 304.945 137.262Z" fill="#455A64"/>
<path d="M326.772 108.374C326.772 108.374 326.214 107.955 325.148 107.345C323.622 106.535 321.926 106.1 320.199 106.075C317.639 106.007 315.113 106.682 312.927 108.018C310.302 109.744 308.172 112.126 306.747 114.929C305.657 116.98 304.805 119.149 304.209 121.395L304.082 121.827L303.689 121.611C301.654 120.545 299.399 119.967 297.103 119.921C295.28 119.88 293.464 120.155 291.735 120.734C290.196 121.306 288.724 122.043 287.344 122.932C287.629 122.592 287.962 122.297 288.334 122.056C289.331 121.328 290.425 120.742 291.583 120.315C293.345 119.643 295.217 119.303 297.103 119.312C299.512 119.306 301.888 119.876 304.032 120.976L303.511 121.204C304.098 118.903 304.949 116.678 306.049 114.573C307.535 111.656 309.774 109.191 312.534 107.434C314.83 106.065 317.479 105.406 320.148 105.541C321.946 105.618 323.694 106.156 325.224 107.104C325.632 107.362 326.011 107.665 326.354 108.005C326.671 108.234 326.785 108.361 326.772 108.374Z" fill="#455A64"/>
<path d="M342.318 112.134C342.255 112.134 343.13 111.905 344.006 112.896C344.259 113.192 344.449 113.536 344.567 113.907C344.685 114.278 344.727 114.668 344.691 115.056C344.614 115.573 344.418 116.064 344.119 116.492C343.819 116.92 343.424 117.272 342.965 117.52C341.875 118.139 340.59 118.317 339.374 118.016C338.036 117.663 336.782 117.05 335.681 116.212C334.526 115.289 333.314 114.441 332.052 113.671C330.686 112.932 329.213 112.413 327.686 112.134C324.72 111.599 321.668 111.809 318.803 112.744C316.45 113.52 314.229 114.651 312.217 116.098C308.765 118.575 307.065 120.658 306.95 120.544C307.292 120.017 307.687 119.527 308.131 119.083C309.293 117.83 310.567 116.686 311.938 115.666C313.961 114.121 316.219 112.911 318.625 112.083C321.605 111.072 324.793 110.836 327.889 111.397C329.493 111.693 331.039 112.241 332.47 113.023C333.747 113.79 334.972 114.639 336.138 115.564C337.159 116.368 338.327 116.963 339.577 117.317C340.648 117.612 341.791 117.489 342.775 116.974C343.173 116.771 343.52 116.48 343.79 116.124C344.061 115.767 344.247 115.355 344.336 114.916C344.427 114.237 344.249 113.548 343.841 112.998C343.452 112.538 342.912 112.232 342.318 112.134Z" fill="#455A64"/>
<path d="M480.007 165.044C478.89 164.053 463.839 170.367 463.839 170.367C463.839 170.367 452.608 179.26 447.989 184.404L445.134 186.78L402.419 220.025L349.881 198.15L338.46 227.482C338.46 227.482 397.444 250.996 406.429 246.969C416.188 242.599 452.545 204.501 452.634 204.374L457.888 199.293C457.888 199.293 460.667 199.293 462.773 199.115C464.88 198.937 471.047 194.885 471.047 194.885C471.633 193.757 472.035 192.544 472.24 191.29C472.369 190.79 472.327 190.262 472.12 189.79C471.912 189.317 471.553 188.928 471.098 188.686C471.313 187.709 471.347 186.702 471.2 185.713C470.959 184.036 468.662 182.092 468.662 182.092C469.377 181.362 469.867 180.44 470.07 179.437C470.578 177.494 468.078 175.626 468.078 175.626C468.078 175.626 476.821 169.681 478.941 168.627C481.06 167.572 481.123 166.035 480.007 165.044Z" fill="#B78876"/>
<path d="M357.61 465.521C357.787 463.59 357.876 462.104 357.876 461.176L363.815 366.37C363.815 366.37 358.828 338.676 356.468 331.334L335.262 323.114L307.001 334.128C306.824 331.854 306.709 330.444 306.709 330.444L265.124 344.85C265.124 344.85 264.045 373.268 265.124 381.919C265.479 384.701 266.558 391.879 267.877 400.339C267.877 400.339 269.223 418.721 269.502 419.75C270.504 423.498 270.771 432.682 270.771 441.88C270.771 453.567 271.405 467.477 272.141 474.083C272.877 480.689 273.22 553.404 273.22 553.404H303.93L307.877 437.599C308.537 425.187 309.527 406.208 310.161 392.476L317.369 435.236C317.369 436.798 321.76 461.253 321.76 461.253C320.746 468.948 320.119 476.69 319.882 484.449C319.374 506.045 316.849 553.404 316.849 553.404H346.899C346.899 553.404 355.935 484.957 357.686 465.521H357.61Z" fill="#263238"/>
<path d="M362.838 360.691C361.851 360.318 360.917 359.819 360.059 359.205C357.927 357.836 355.938 356.257 354.12 354.492C352.302 352.73 350.662 350.794 349.221 348.712C348.573 347.881 348.047 346.962 347.661 345.981C348.357 346.755 349.001 347.574 349.589 348.432C351.12 350.414 352.786 352.286 354.577 354.035C356.368 355.765 358.281 357.366 360.3 358.824C361.189 359.385 362.038 360.009 362.838 360.691Z" fill="#455A64"/>
<path d="M309.184 377.917C308.943 377.635 308.746 377.318 308.6 376.977C308.128 376.086 307.705 375.17 307.331 374.233C306.046 371.15 305.105 367.933 304.527 364.642C303.962 361.35 303.758 358.006 303.917 354.67C303.994 353.4 304.095 352.371 304.209 351.659C304.232 351.285 304.313 350.916 304.45 350.567C304.552 350.567 304.45 352.155 304.387 354.683C304.349 357.982 304.612 361.277 305.174 364.528C305.734 367.777 306.584 370.97 307.712 374.068C308.613 376.444 309.273 377.867 309.184 377.917Z" fill="#455A64"/>
<path d="M313.651 413.614C313.463 413.079 313.331 412.526 313.257 411.963C313.037 410.76 312.758 409.249 312.42 407.428C311.76 403.452 310.872 398.218 309.882 392.425C308.181 381.792 307.027 374.551 306.494 371.185C307.183 373.175 307.668 375.231 307.94 377.32C308.676 381.131 309.59 386.454 310.554 392.311C311.519 398.167 312.318 403.502 312.877 407.352C313.118 409.181 313.334 410.705 313.499 411.925C313.612 412.481 313.663 413.047 313.651 413.614Z" fill="#455A64"/>
<path d="M241.177 255.481C241.177 255.481 237.129 284.051 236.368 294.061C235.911 300.096 242.027 308.035 246.697 308.683C251.367 309.331 267.103 310.208 267.103 310.208L268.372 292.283L267.966 288.713L263.08 287.799L264.552 259.368L241.177 255.481Z" fill="#B78876"/>
<path d="M263.943 260.333C264.069 260.841 264.133 261.361 264.134 261.883C264.21 262.887 264.261 264.335 264.299 266.139C264.387 269.721 264.299 274.689 263.994 280.113C263.689 285.537 263.245 290.53 262.903 294.087C262.712 295.865 262.56 297.314 262.433 298.304C262.405 298.825 262.315 299.341 262.167 299.842C262.109 299.322 262.109 298.798 262.167 298.279C262.23 297.136 262.319 295.738 262.42 294.036C262.662 290.314 262.966 285.448 263.309 280.062C263.651 274.676 263.778 269.671 263.816 266.088C263.816 264.411 263.816 262.989 263.816 261.845C263.806 261.338 263.848 260.832 263.943 260.333Z" fill="#AA6550"/>
<g opacity="0.3">
<path opacity="0.3" d="M265.492 345.371C273.486 348.344 282.243 348.585 290.732 347.848C299.222 347.111 307.623 345.396 316.113 344.596C328.979 343.392 341.955 344.25 354.551 347.137C355.43 347.404 356.354 347.49 357.267 347.391C357.72 347.333 358.146 347.14 358.488 346.836C358.83 346.532 359.072 346.132 359.183 345.689C359.412 344.266 357.851 343.275 356.531 342.729C342.006 336.716 326.391 333.791 310.677 334.141C294.963 334.491 279.494 338.108 265.25 344.761" fill="black"/>
</g>
<path d="M387.901 211.133L342.826 188.673C335.718 187.838 328.558 187.524 321.405 187.733H291.57C291.57 187.733 255.428 198.404 249.451 208.249L233.956 254.744L264.591 259.368L268.398 292.778C268.398 292.778 264.591 331.461 264.591 337.076C264.508 339.676 264.665 342.279 265.06 344.85C265.06 344.85 326.354 335.526 341.442 340.442C356.531 345.358 360.605 344.85 360.605 344.85C360.605 344.85 359.336 328.793 358.231 319.443L354.754 272.821L352.216 237.251L380.579 245.94L387.901 211.133Z" fill="#FF725E"/>
<path d="M264.311 259.736C264.197 259.736 263.893 257.818 263.22 254.719C262.324 250.687 261.137 246.725 259.667 242.866C258.166 238.978 256.411 235.192 254.413 231.535L252.56 228.206C252.298 227.812 252.089 227.385 251.938 226.936C252.27 227.277 252.56 227.657 252.801 228.067C253.322 228.816 254.07 229.921 254.845 231.319C256.987 234.93 258.821 238.717 260.327 242.637C261.811 246.525 262.941 250.538 263.702 254.63C263.981 256.192 264.159 257.462 264.248 258.352C264.326 258.809 264.347 259.274 264.311 259.736Z" fill="#263238"/>
<path d="M322.115 272.935C322.091 273.15 322.036 273.36 321.95 273.558L321.379 275.273C321.125 276.022 320.808 276.924 320.389 277.966C319.971 279.008 319.526 280.202 318.943 281.472C317.839 284.013 316.405 287.087 314.603 290.365C312.801 293.642 310.669 297.123 308.258 300.655C305.846 304.186 303.181 307.375 300.783 310.195C298.385 313.015 295.986 315.391 293.93 317.322C292.928 318.312 291.951 319.138 291.126 319.862C290.301 320.586 289.552 321.234 288.943 321.73L287.522 322.848C287.362 322.988 287.187 323.112 287.001 323.216C287.001 323.216 287.141 323.038 287.446 322.746L288.778 321.476C289.362 320.967 290.047 320.32 290.885 319.545C291.722 318.77 292.636 317.931 293.613 316.928C295.618 314.971 297.902 312.532 300.326 309.738C302.75 306.943 305.263 303.716 307.725 300.223C310.186 296.729 312.293 293.236 314.07 290.06C315.846 286.884 317.356 283.835 318.511 281.282C319.12 280.011 319.59 278.83 320.034 277.814C320.478 276.797 320.846 275.908 321.138 275.171C321.43 274.434 321.633 273.901 321.823 273.494C321.897 273.297 321.995 273.109 322.115 272.935Z" fill="#263238"/>
<path d="M342.94 191.747C341.754 193.444 340.945 195.376 340.567 197.413C340.186 199.62 340.186 201.875 340.567 204.082C341.059 206.799 341.694 209.487 342.47 212.136C344.031 217.827 345.668 222.896 346.925 226.555C347.521 228.282 348.016 229.731 348.422 230.887C348.632 231.408 348.794 231.949 348.904 232.5C348.608 232.018 348.362 231.507 348.168 230.976C347.749 229.985 347.153 228.537 346.468 226.72C345.097 223.099 343.371 218.018 341.81 212.314C341.052 209.654 340.446 206.952 339.996 204.222C339.623 201.952 339.658 199.633 340.097 197.375C340.409 195.851 341.003 194.399 341.849 193.094C342.127 192.582 342.497 192.126 342.94 191.747Z" fill="#263238"/>
<path d="M257.89 240.694C257.222 241.417 256.397 241.977 255.479 242.333C253.323 243.323 250.923 243.66 248.578 243.301C246.233 242.942 244.043 241.903 242.281 240.313C241.513 239.704 240.897 238.926 240.479 238.039C240.568 237.963 241.228 238.865 242.586 239.957C244.352 241.387 246.467 242.32 248.712 242.661C250.958 243.003 253.254 242.74 255.365 241.901C256.926 241.265 257.827 240.605 257.89 240.694Z" fill="white"/>
<path d="M344.272 219.72C344.184 220.058 344.06 220.386 343.904 220.699C343.625 221.334 343.194 222.248 342.572 223.392C340.786 226.634 338.527 229.593 335.871 232.17C331.901 236.027 326.95 238.72 321.557 239.957C318.378 240.686 315.092 240.829 311.862 240.376C308.405 239.826 305.079 238.641 302.052 236.883C295.821 233.402 290.555 228.994 284.793 226.885C279.697 224.999 274.152 224.694 268.88 226.009C265.322 226.863 261.964 228.404 258.994 230.544C256.913 232.081 255.936 233.161 255.885 233.084C256.774 232.066 257.764 231.143 258.842 230.328C262.526 227.533 266.848 225.701 271.416 224.998C275.985 224.295 280.657 224.743 285.009 226.301C290.91 228.435 296.215 232.856 302.369 236.286C305.324 238.028 308.57 239.216 311.95 239.792C315.107 240.237 318.319 240.107 321.43 239.411C326.727 238.222 331.604 235.619 335.541 231.878C338.207 229.364 340.497 226.481 342.343 223.315C342.991 222.198 343.473 221.296 343.777 220.686C343.917 220.351 344.082 220.029 344.272 219.72Z" fill="white"/>
<path d="M372.495 203.422C372.746 203.889 372.942 204.383 373.079 204.895C373.497 206.27 373.744 207.691 373.815 209.126C374.061 213.937 372.54 218.673 369.538 222.439C367.795 224.371 365.902 226.164 363.879 227.8C362.29 229.134 360.994 230.781 360.072 232.64C359.448 233.891 359.155 235.282 359.221 236.68C359.297 237.67 359.513 238.204 359.45 238.217C359.386 238.229 359.361 238.102 359.259 237.848C359.116 237.481 359.018 237.097 358.968 236.705C358.794 235.251 359.026 233.778 359.64 232.449C360.532 230.503 361.83 228.77 363.447 227.368C365.417 225.724 367.27 223.946 368.993 222.045C371.891 218.387 373.421 213.831 373.32 209.164C373.223 207.228 372.947 205.306 372.495 203.422Z" fill="white"/>
<path d="M299.184 310.525C298.784 310.739 298.357 310.897 297.915 310.995C296.692 311.346 295.445 311.609 294.184 311.783C292.284 312.098 290.337 311.986 288.486 311.453C287.388 311.103 286.373 310.533 285.504 309.776C284.63 308.945 283.816 308.053 283.067 307.108C282.333 306.208 281.479 305.413 280.529 304.745C279.625 304.155 278.649 303.685 277.623 303.348C275.867 302.786 274.01 302.608 272.179 302.827C270.938 302.964 269.729 303.307 268.601 303.843C268.194 304.071 267.769 304.266 267.332 304.427C267.664 304.094 268.05 303.819 268.474 303.614C269.597 302.965 270.833 302.534 272.116 302.344C274.016 302.039 275.961 302.174 277.801 302.738C278.892 303.073 279.93 303.561 280.885 304.186C281.899 304.869 282.805 305.7 283.575 306.651C284.303 307.57 285.092 308.44 285.935 309.255C286.74 309.963 287.676 310.507 288.689 310.855C290.458 311.379 292.316 311.53 294.146 311.3C297.23 310.932 299.159 310.411 299.184 310.525Z" fill="white"/>
<path d="M357.546 307.819C357.426 307.95 357.289 308.065 357.14 308.162C356.734 308.467 356.31 308.747 355.871 309.001C354.295 309.964 352.584 310.688 350.795 311.148C348.107 311.84 345.31 312.004 342.559 311.63C339.166 311.171 335.945 309.86 333.194 307.819C330.58 305.706 328.08 303.454 325.707 301.074C323.764 299.184 321.516 297.637 319.057 296.5C317.406 295.735 315.61 295.336 313.79 295.332C312.521 295.332 311.785 295.548 311.773 295.472C311.934 295.396 312.105 295.34 312.28 295.306C312.77 295.174 313.272 295.093 313.778 295.065C315.653 294.98 317.524 295.323 319.247 296.069C321.786 297.172 324.11 298.716 326.113 300.629C328.435 302.687 330.745 305.19 333.587 307.286C336.251 309.246 339.361 310.512 342.635 310.97C345.314 311.358 348.041 311.25 350.681 310.652C352.447 310.232 354.153 309.587 355.757 308.734C356.334 308.393 356.932 308.087 357.546 307.819Z" fill="white"/>
<path d="M465.413 126.807C456.196 122.393 448.15 115.863 441.932 107.747C435.714 99.6315 431.498 90.1603 429.629 80.105C427.76 70.0497 428.289 59.6945 431.175 49.8829C434.061 40.0714 439.22 31.0808 446.234 23.6435C453.248 16.2062 461.918 10.5325 471.537 7.0845C481.156 3.63649 491.453 2.51168 501.588 3.80168C511.724 5.09168 521.412 8.76002 529.863 14.5079C538.314 20.2558 545.29 27.9207 550.221 36.8783C556.863 48.9246 559.51 62.7716 557.781 76.4215C556.051 90.0714 550.035 102.818 540.599 112.823C531.164 122.829 518.797 129.574 505.284 132.088C491.77 134.601 477.808 132.752 465.413 126.807ZM519.498 13.5674C506.481 7.34678 491.671 5.98651 477.74 9.73178C463.808 13.4771 451.672 22.0815 443.519 33.9937C435.365 45.9059 431.732 60.3421 433.272 74.6996C434.813 89.0571 441.427 102.391 451.922 112.298C462.417 122.204 476.103 128.032 490.511 128.729C504.919 129.427 519.102 124.948 530.503 116.102C541.903 107.255 549.772 94.6218 552.689 80.4801C555.607 66.3384 553.381 51.6185 546.414 38.9744C540.313 27.8995 530.901 19.0149 519.498 13.5674Z" fill="#263238"/>
<path d="M574.904 197.87C573.082 198.991 570.89 199.344 568.809 198.851C566.728 198.358 564.927 197.06 563.8 195.241L521.377 126.4C521.183 126.088 521.122 125.713 521.205 125.355C521.288 124.998 521.51 124.689 521.821 124.495L530.869 118.905C531.177 118.716 531.546 118.655 531.899 118.733C532.251 118.811 532.56 119.023 532.76 119.324L577.378 186.437C577.992 187.342 578.415 188.363 578.623 189.436C578.831 190.51 578.819 191.615 578.588 192.684C578.356 193.753 577.91 194.764 577.277 195.656C576.644 196.547 575.836 197.3 574.904 197.87Z" fill="#263238"/>
<path d="M466.974 123.529C457.751 119.118 449.7 112.588 443.476 104.471C437.253 96.3548 433.032 86.8812 431.16 76.8223C429.287 66.7635 429.815 56.4041 432.7 46.5881C435.585 36.7721 440.746 27.7774 447.762 20.3366C454.778 12.8959 463.451 7.21967 473.074 3.77052C482.697 0.321365 492.998 -0.803169 503.138 0.48854C513.277 1.78025 522.968 5.45166 531.422 11.2036C539.875 16.9556 546.851 24.6254 551.782 33.5881C558.419 45.6351 561.063 59.4809 559.332 73.1291C557.602 86.7773 551.586 99.5227 542.152 109.527C532.718 119.532 520.354 126.279 506.843 128.795C493.331 131.312 479.371 129.468 466.974 123.529ZM521.059 10.2898C508.041 4.06926 493.232 2.70899 479.3 6.45426C465.369 10.1995 453.233 18.8039 445.079 30.7161C436.926 42.6283 433.292 57.0646 434.833 71.4221C436.374 85.7796 442.988 99.1136 453.483 109.02C463.978 118.927 477.663 124.754 492.071 125.452C506.48 126.149 520.663 121.671 532.063 112.824C543.464 103.977 551.333 91.3442 554.25 77.2025C557.168 63.0609 554.942 48.341 547.975 35.6969C541.874 24.622 532.461 15.7374 521.059 10.2898Z" fill="#455A64"/>
<path d="M522.21 121.87L533.583 114.847L578.696 188.054C579.58 189.488 579.858 191.214 579.47 192.853C579.082 194.492 578.06 195.91 576.627 196.795L575.969 197.202C574.536 198.086 572.812 198.365 571.174 197.976C569.537 197.588 568.121 196.564 567.237 195.13L522.124 121.924L522.21 121.87Z" fill="#455A64"/>
<path d="M446.517 49.5184C446.577 48.8403 446.696 48.1687 446.872 47.5112C447.023 46.7288 447.222 45.9565 447.469 45.1992C447.756 44.179 448.095 43.1741 448.484 42.1884L449.131 40.4734C449.372 39.8764 449.69 39.292 449.982 38.6568C450.553 37.3865 451.327 36.1161 452.101 34.7823C453.901 31.9213 455.985 29.2486 458.319 26.8045C460.697 24.4084 463.307 22.2551 466.111 20.3765C467.342 19.5721 468.612 18.8301 469.918 18.1533C470.527 17.8358 471.111 17.5055 471.694 17.2387L473.395 16.5146C474.364 16.0974 475.356 15.7327 476.364 15.4221C477.115 15.1516 477.882 14.9309 478.661 14.7615C479.315 14.5759 479.981 14.4358 480.654 14.3423C480.028 14.6068 479.383 14.8234 478.725 14.9902C477.962 15.2006 477.212 15.4551 476.479 15.7524C475.49 16.0902 474.52 16.4804 473.573 16.9211L471.91 17.6706C471.326 17.9374 470.755 18.2804 470.159 18.598C468.89 19.2204 467.722 20.0335 466.415 20.8465C463.679 22.7135 461.129 24.8406 458.801 27.1983C456.497 29.6084 454.428 32.2329 452.621 35.0363C451.847 36.3067 451.06 37.577 450.476 38.8474C450.185 39.4572 449.855 40.0288 449.601 40.6132L448.89 42.3028C448.408 43.3572 448.116 44.3734 447.799 45.25C447.526 45.9939 447.297 46.7532 447.114 47.5239C446.968 48.2036 446.769 48.8706 446.517 49.5184Z" fill="#E0E0E0"/>
</g>
<defs>
<clipPath id="clip0_4_1818">
<rect width="593" height="575" fill="white"/>
</clipPath>
</defs>
</svg>
