<svg width="1600" height="264" viewBox="0 0 1600 264" fill="none" xmlns="http://www.w3.org/2000/svg">
<path fill-rule="evenodd" clip-rule="evenodd" d="M0 44L66.6667 58.6667C133.333 73.3333 266.667 102.667 400 102.667C533.333 102.667 666.667 73.3333 800 73.3333C933.333 73.3333 1066.67 102.667 1200 95.3333C1333.33 88 1466.67 44 1533.33 22L1600 0V264H1533.33C1466.67 264 1333.33 264 1200 264C1066.67 264 933.333 264 800 264C666.667 264 533.333 264 400 264C266.667 264 133.333 264 66.6667 264H0V44Z" fill="#293241"/>
</svg>
