<svg width="1600" height="207" viewBox="0 0 1600 207" fill="none" xmlns="http://www.w3.org/2000/svg">
<path d="M0 104.75L53.3333 100.413C106.667 95.7479 213.333 87.5643 320 95.9934C426.667 104.75 533.333 130.937 640 126.6C746.667 121.935 853.333 87.5643 960 100.413C1066.67 113.752 1173.33 174.31 1280 196.406C1386.67 218.502 1493.33 200.498 1546.67 192.069L1600 183.312V0H1546.67C1493.33 0 1386.67 0 1280 0C1173.33 0 1066.67 0 960 0C853.333 0 746.667 0 640 0C533.333 0 426.667 0 320 0C213.333 0 106.667 0 53.3333 0H0V104.75Z" fill="#293241"/>
</svg>
